<svg xmlns="http://www.w3.org/2000/svg" width="760" height="200" viewBox="0 0 760 200" role="img" aria-label="일별 앱 실행 추정 — 최근 7일 평균 하루 8회">
<g font-family="-apple-system, BlinkMacSystemFont, 'Segoe UI', 'Malgun Gothic', 'Apple SD Gothic Neo', sans-serif" font-size="11">
<line x1="30" y1="174.0" x2="664" y2="174.0" stroke="#e6e0d0" stroke-width="1"/>
<text x="22" y="177.5" fill="#847f6d" font-size="10" text-anchor="end">0</text>
<line x1="30" y1="134.0" x2="664" y2="134.0" stroke="#e6e0d0" stroke-width="1"/>
<text x="22" y="137.5" fill="#847f6d" font-size="10" text-anchor="end">10</text>
<line x1="30" y1="94.0" x2="664" y2="94.0" stroke="#e6e0d0" stroke-width="1"/>
<text x="22" y="97.5" fill="#847f6d" font-size="10" text-anchor="end">20</text>
<line x1="30" y1="54.0" x2="664" y2="54.0" stroke="#e6e0d0" stroke-width="1"/>
<text x="22" y="57.5" fill="#847f6d" font-size="10" text-anchor="end">30</text>
<line x1="30" y1="14.0" x2="664" y2="14.0" stroke="#e6e0d0" stroke-width="1"/>
<text x="22" y="17.5" fill="#847f6d" font-size="10" text-anchor="end">40</text>
<rect x="30.0" y="150.0" width="7.3" height="24.0" fill="#0e7a5b"/>
<rect x="36.8" y="170.0" width="7.3" height="4.0" fill="#0e7a5b"/>
<rect x="47.1" y="126.0" width="7.3" height="48.0" fill="#0e7a5b"/>
<rect x="57.5" y="174.0" width="7.3" height="0.8" fill="#0e7a5b"/>
<rect x="67.9" y="174.0" width="7.3" height="0.8" fill="#0e7a5b"/>
<rect x="78.3" y="166.0" width="7.3" height="8.0" fill="#0e7a5b"/>
<rect x="88.7" y="66.0" width="7.3" height="108.0" fill="#0e7a5b"/>
<rect x="109.5" y="154.0" width="7.3" height="20.0" fill="#0e7a5b" opacity="0.55"/>
<rect x="119.9" y="118.0" width="7.3" height="56.0" fill="#0e7a5b"/>
<rect x="130.3" y="162.0" width="7.3" height="12.0" fill="#0e7a5b"/>
<rect x="140.7" y="150.0" width="7.3" height="24.0" fill="#0e7a5b"/>
<rect x="151.1" y="170.0" width="7.3" height="4.0" fill="#0e7a5b"/>
<rect x="161.5" y="174.0" width="7.3" height="0.8" fill="#0e7a5b"/>
<rect x="171.9" y="90.0" width="7.3" height="84.0" fill="#0e7a5b"/>
<rect x="182.3" y="74.0" width="7.3" height="100.0" fill="#0e7a5b"/>
<rect x="192.7" y="174.0" width="7.3" height="0.8" fill="#0e7a5b"/>
<rect x="203.1" y="166.0" width="7.3" height="8.0" fill="#0e7a5b"/>
<rect x="213.4" y="174.0" width="7.3" height="0.8" fill="#0e7a5b"/>
<rect x="223.8" y="170.0" width="7.3" height="4.0" fill="#0e7a5b"/>
<rect x="234.2" y="78.0" width="7.3" height="96.0" fill="#0e7a5b"/>
<rect x="244.6" y="158.0" width="7.3" height="16.0" fill="#0e7a5b"/>
<rect x="255.0" y="166.0" width="7.3" height="8.0" fill="#0e7a5b"/>
<rect x="265.4" y="174.0" width="7.3" height="0.8" fill="#0e7a5b"/>
<rect x="275.8" y="118.0" width="7.3" height="56.0" fill="#0e7a5b"/>
<rect x="286.2" y="174.0" width="7.3" height="0.8" fill="#0e7a5b"/>
<rect x="296.6" y="170.0" width="7.3" height="4.0" fill="#0e7a5b"/>
<rect x="317.4" y="172.0" width="7.3" height="2.0" fill="#0e7a5b" opacity="0.55"/>
<rect x="327.8" y="170.0" width="7.3" height="4.0" fill="#0e7a5b"/>
<rect x="338.2" y="154.0" width="7.3" height="20.0" fill="#0e7a5b"/>
<rect x="348.6" y="58.0" width="7.3" height="116.0" fill="#0e7a5b"/>
<rect x="369.3" y="166.0" width="7.3" height="8.0" fill="#0e7a5b" opacity="0.55"/>
<rect x="379.7" y="58.0" width="7.3" height="116.0" fill="#0e7a5b"/>
<rect x="390.1" y="106.0" width="7.3" height="68.0" fill="#0e7a5b"/>
<rect x="400.5" y="86.0" width="7.3" height="88.0" fill="#0e7a5b"/>
<rect x="410.9" y="150.0" width="7.3" height="24.0" fill="#0e7a5b"/>
<rect x="421.3" y="42.0" width="7.3" height="132.0" fill="#0e7a5b"/>
<rect x="431.7" y="86.0" width="7.3" height="88.0" fill="#0e7a5b"/>
<rect x="442.1" y="98.0" width="7.3" height="76.0" fill="#0e7a5b"/>
<rect x="452.5" y="54.0" width="7.3" height="120.0" fill="#0e7a5b"/>
<rect x="462.9" y="138.0" width="7.3" height="36.0" fill="#0e7a5b"/>
<rect x="473.3" y="162.0" width="7.3" height="12.0" fill="#0e7a5b"/>
<rect x="483.7" y="134.0" width="7.3" height="40.0" fill="#0e7a5b"/>
<rect x="494.1" y="158.0" width="7.3" height="16.0" fill="#0e7a5b"/>
<rect x="504.5" y="98.0" width="7.3" height="76.0" fill="#0e7a5b"/>
<rect x="514.9" y="138.0" width="7.3" height="36.0" fill="#0e7a5b"/>
<rect x="525.2" y="74.0" width="7.3" height="100.0" fill="#0e7a5b"/>
<rect x="535.6" y="170.0" width="7.3" height="4.0" fill="#0e7a5b"/>
<rect x="546.0" y="170.0" width="7.3" height="4.0" fill="#0e7a5b"/>
<rect x="556.4" y="170.0" width="7.3" height="4.0" fill="#0e7a5b"/>
<rect x="566.8" y="174.0" width="7.3" height="0.8" fill="#0e7a5b"/>
<rect x="587.6" y="170.0" width="7.3" height="4.0" fill="#0e7a5b" opacity="0.55"/>
<rect x="598.0" y="34.0" width="7.3" height="140.0" fill="#0e7a5b"/>
<rect x="608.4" y="174.0" width="7.3" height="0.8" fill="#0e7a5b"/>
<rect x="618.8" y="174.0" width="7.3" height="0.8" fill="#0e7a5b"/>
<rect x="629.2" y="174.0" width="7.3" height="0.8" fill="#0e7a5b"/>
<rect x="639.6" y="162.0" width="7.3" height="12.0" fill="#0e7a5b"/>
<rect x="656.7" y="112.0" width="7.3" height="62.0" fill="#0e7a5b" opacity="0.55"/>
<line x1="30" y1="142.9" x2="664" y2="142.9" stroke="#4c4f43" stroke-width="1" stroke-dasharray="4 3" opacity="0.6"/>
<text x="672" y="146.9" fill="#4c4f43" font-size="12" font-weight="600">7일 평균 8</text>
<text x="30.0" y="192" fill="#847f6d" font-size="10" text-anchor="start">07.30</text>
<text x="341.8" y="192" fill="#847f6d" font-size="10" text-anchor="middle">08.29</text>
<text x="664.0" y="192" fill="#847f6d" font-size="10" text-anchor="end">09.29</text>
</g>
</svg>
