<svg xmlns="http://www.w3.org/2000/svg" width="760" height="200" viewBox="0 0 760 200" role="img" aria-label="일별 앱 실행 추정 — 최근 7일 평균 하루 12회">
<g font-family="-apple-system, BlinkMacSystemFont, 'Segoe UI', 'Malgun Gothic', 'Apple SD Gothic Neo', sans-serif" font-size="11">
<line x1="30" y1="174.0" x2="664" y2="174.0" stroke="#e6e0d0" stroke-width="1"/>
<text x="22" y="177.5" fill="#847f6d" font-size="10" text-anchor="end">0</text>
<line x1="30" y1="134.0" x2="664" y2="134.0" stroke="#e6e0d0" stroke-width="1"/>
<text x="22" y="137.5" fill="#847f6d" font-size="10" text-anchor="end">10</text>
<line x1="30" y1="94.0" x2="664" y2="94.0" stroke="#e6e0d0" stroke-width="1"/>
<text x="22" y="97.5" fill="#847f6d" font-size="10" text-anchor="end">20</text>
<line x1="30" y1="54.0" x2="664" y2="54.0" stroke="#e6e0d0" stroke-width="1"/>
<text x="22" y="57.5" fill="#847f6d" font-size="10" text-anchor="end">30</text>
<line x1="30" y1="14.0" x2="664" y2="14.0" stroke="#e6e0d0" stroke-width="1"/>
<text x="22" y="17.5" fill="#847f6d" font-size="10" text-anchor="end">40</text>
<rect x="30.0" y="150.0" width="7.2" height="24.0" fill="#0e7a5b"/>
<rect x="36.6" y="170.0" width="7.2" height="4.0" fill="#0e7a5b"/>
<rect x="46.9" y="126.0" width="7.2" height="48.0" fill="#0e7a5b"/>
<rect x="57.1" y="174.0" width="7.2" height="0.8" fill="#0e7a5b"/>
<rect x="67.3" y="174.0" width="7.2" height="0.8" fill="#0e7a5b"/>
<rect x="77.6" y="166.0" width="7.2" height="8.0" fill="#0e7a5b"/>
<rect x="87.8" y="66.0" width="7.2" height="108.0" fill="#0e7a5b"/>
<rect x="108.2" y="154.0" width="7.2" height="20.0" fill="#0e7a5b" opacity="0.55"/>
<rect x="118.5" y="118.0" width="7.2" height="56.0" fill="#0e7a5b"/>
<rect x="128.7" y="162.0" width="7.2" height="12.0" fill="#0e7a5b"/>
<rect x="138.9" y="150.0" width="7.2" height="24.0" fill="#0e7a5b"/>
<rect x="149.1" y="170.0" width="7.2" height="4.0" fill="#0e7a5b"/>
<rect x="159.4" y="174.0" width="7.2" height="0.8" fill="#0e7a5b"/>
<rect x="169.6" y="90.0" width="7.2" height="84.0" fill="#0e7a5b"/>
<rect x="179.8" y="74.0" width="7.2" height="100.0" fill="#0e7a5b"/>
<rect x="190.0" y="174.0" width="7.2" height="0.8" fill="#0e7a5b"/>
<rect x="200.3" y="166.0" width="7.2" height="8.0" fill="#0e7a5b"/>
<rect x="210.5" y="174.0" width="7.2" height="0.8" fill="#0e7a5b"/>
<rect x="220.7" y="170.0" width="7.2" height="4.0" fill="#0e7a5b"/>
<rect x="230.9" y="78.0" width="7.2" height="96.0" fill="#0e7a5b"/>
<rect x="241.2" y="158.0" width="7.2" height="16.0" fill="#0e7a5b"/>
<rect x="251.4" y="166.0" width="7.2" height="8.0" fill="#0e7a5b"/>
<rect x="261.6" y="174.0" width="7.2" height="0.8" fill="#0e7a5b"/>
<rect x="271.8" y="118.0" width="7.2" height="56.0" fill="#0e7a5b"/>
<rect x="282.1" y="174.0" width="7.2" height="0.8" fill="#0e7a5b"/>
<rect x="292.3" y="170.0" width="7.2" height="4.0" fill="#0e7a5b"/>
<rect x="312.7" y="172.0" width="7.2" height="2.0" fill="#0e7a5b" opacity="0.55"/>
<rect x="323.0" y="170.0" width="7.2" height="4.0" fill="#0e7a5b"/>
<rect x="333.2" y="154.0" width="7.2" height="20.0" fill="#0e7a5b"/>
<rect x="343.4" y="58.0" width="7.2" height="116.0" fill="#0e7a5b"/>
<rect x="363.9" y="166.0" width="7.2" height="8.0" fill="#0e7a5b" opacity="0.55"/>
<rect x="374.1" y="58.0" width="7.2" height="116.0" fill="#0e7a5b"/>
<rect x="384.3" y="106.0" width="7.2" height="68.0" fill="#0e7a5b"/>
<rect x="394.6" y="86.0" width="7.2" height="88.0" fill="#0e7a5b"/>
<rect x="404.8" y="150.0" width="7.2" height="24.0" fill="#0e7a5b"/>
<rect x="415.0" y="42.0" width="7.2" height="132.0" fill="#0e7a5b"/>
<rect x="425.2" y="86.0" width="7.2" height="88.0" fill="#0e7a5b"/>
<rect x="435.5" y="98.0" width="7.2" height="76.0" fill="#0e7a5b"/>
<rect x="445.7" y="54.0" width="7.2" height="120.0" fill="#0e7a5b"/>
<rect x="455.9" y="138.0" width="7.2" height="36.0" fill="#0e7a5b"/>
<rect x="466.1" y="162.0" width="7.2" height="12.0" fill="#0e7a5b"/>
<rect x="476.4" y="134.0" width="7.2" height="40.0" fill="#0e7a5b"/>
<rect x="486.6" y="158.0" width="7.2" height="16.0" fill="#0e7a5b"/>
<rect x="496.8" y="98.0" width="7.2" height="76.0" fill="#0e7a5b"/>
<rect x="507.0" y="138.0" width="7.2" height="36.0" fill="#0e7a5b"/>
<rect x="517.3" y="74.0" width="7.2" height="100.0" fill="#0e7a5b"/>
<rect x="527.5" y="170.0" width="7.2" height="4.0" fill="#0e7a5b"/>
<rect x="537.7" y="170.0" width="7.2" height="4.0" fill="#0e7a5b"/>
<rect x="547.9" y="170.0" width="7.2" height="4.0" fill="#0e7a5b"/>
<rect x="558.2" y="174.0" width="7.2" height="0.8" fill="#0e7a5b"/>
<rect x="578.6" y="170.0" width="7.2" height="4.0" fill="#0e7a5b" opacity="0.55"/>
<rect x="588.8" y="34.0" width="7.2" height="140.0" fill="#0e7a5b"/>
<rect x="599.1" y="174.0" width="7.2" height="0.8" fill="#0e7a5b"/>
<rect x="609.3" y="174.0" width="7.2" height="0.8" fill="#0e7a5b"/>
<rect x="619.5" y="174.0" width="7.2" height="0.8" fill="#0e7a5b"/>
<rect x="629.7" y="162.0" width="7.2" height="12.0" fill="#0e7a5b"/>
<rect x="650.2" y="112.0" width="7.2" height="62.0" fill="#0e7a5b" opacity="0.55"/>
<rect x="656.8" y="58.0" width="7.2" height="116.0" fill="#0e7a5b"/>
<line x1="30" y1="126.9" x2="664" y2="126.9" stroke="#4c4f43" stroke-width="1" stroke-dasharray="4 3" opacity="0.6"/>
<text x="672" y="130.9" fill="#4c4f43" font-size="12" font-weight="600">7일 평균 12</text>
<text x="30.0" y="192" fill="#847f6d" font-size="10" text-anchor="start">07.30</text>
<text x="347.0" y="192" fill="#847f6d" font-size="10" text-anchor="middle">08.30</text>
<text x="664.0" y="192" fill="#847f6d" font-size="10" text-anchor="end">09.30</text>
</g>
</svg>
