<svg xmlns="http://www.w3.org/2000/svg" width="760" height="200" viewBox="0 0 760 200" role="img" aria-label="일별 앱 실행 추정 — 최근 7일 평균 하루 20회">
<g font-family="-apple-system, BlinkMacSystemFont, 'Segoe UI', 'Malgun Gothic', 'Apple SD Gothic Neo', sans-serif" font-size="11">
<line x1="30" y1="174.0" x2="664" y2="174.0" stroke="#e6e0d0" stroke-width="1"/>
<text x="22" y="177.5" fill="#847f6d" font-size="10" text-anchor="end">0</text>
<line x1="30" y1="134.0" x2="664" y2="134.0" stroke="#e6e0d0" stroke-width="1"/>
<text x="22" y="137.5" fill="#847f6d" font-size="10" text-anchor="end">10</text>
<line x1="30" y1="94.0" x2="664" y2="94.0" stroke="#e6e0d0" stroke-width="1"/>
<text x="22" y="97.5" fill="#847f6d" font-size="10" text-anchor="end">20</text>
<line x1="30" y1="54.0" x2="664" y2="54.0" stroke="#e6e0d0" stroke-width="1"/>
<text x="22" y="57.5" fill="#847f6d" font-size="10" text-anchor="end">30</text>
<line x1="30" y1="14.0" x2="664" y2="14.0" stroke="#e6e0d0" stroke-width="1"/>
<text x="22" y="17.5" fill="#847f6d" font-size="10" text-anchor="end">40</text>
<rect x="30.0" y="150.0" width="10.6" height="24.0" fill="#0e7a5b"/>
<rect x="39.8" y="170.0" width="10.6" height="4.0" fill="#0e7a5b"/>
<rect x="54.9" y="126.0" width="10.6" height="48.0" fill="#0e7a5b"/>
<rect x="70.0" y="174.0" width="10.6" height="0.8" fill="#0e7a5b"/>
<rect x="85.1" y="174.0" width="10.6" height="0.8" fill="#0e7a5b"/>
<rect x="100.2" y="166.0" width="10.6" height="8.0" fill="#0e7a5b"/>
<rect x="115.3" y="66.0" width="10.6" height="108.0" fill="#0e7a5b"/>
<rect x="145.5" y="154.0" width="10.6" height="20.0" fill="#0e7a5b" opacity="0.55"/>
<rect x="160.6" y="118.0" width="10.6" height="56.0" fill="#0e7a5b"/>
<rect x="175.7" y="162.0" width="10.6" height="12.0" fill="#0e7a5b"/>
<rect x="190.8" y="150.0" width="10.6" height="24.0" fill="#0e7a5b"/>
<rect x="205.9" y="170.0" width="10.6" height="4.0" fill="#0e7a5b"/>
<rect x="221.0" y="174.0" width="10.6" height="0.8" fill="#0e7a5b"/>
<rect x="236.1" y="90.0" width="10.6" height="84.0" fill="#0e7a5b"/>
<rect x="251.1" y="74.0" width="10.6" height="100.0" fill="#0e7a5b"/>
<rect x="266.2" y="174.0" width="10.6" height="0.8" fill="#0e7a5b"/>
<rect x="281.3" y="166.0" width="10.6" height="8.0" fill="#0e7a5b"/>
<rect x="296.4" y="174.0" width="10.6" height="0.8" fill="#0e7a5b"/>
<rect x="311.5" y="170.0" width="10.6" height="4.0" fill="#0e7a5b"/>
<rect x="326.6" y="78.0" width="10.6" height="96.0" fill="#0e7a5b"/>
<rect x="341.7" y="158.0" width="10.6" height="16.0" fill="#0e7a5b"/>
<rect x="356.8" y="166.0" width="10.6" height="8.0" fill="#0e7a5b"/>
<rect x="371.9" y="174.0" width="10.6" height="0.8" fill="#0e7a5b"/>
<rect x="387.0" y="118.0" width="10.6" height="56.0" fill="#0e7a5b"/>
<rect x="402.1" y="174.0" width="10.6" height="0.8" fill="#0e7a5b"/>
<rect x="417.2" y="170.0" width="10.6" height="4.0" fill="#0e7a5b"/>
<rect x="447.4" y="172.0" width="10.6" height="2.0" fill="#0e7a5b" opacity="0.55"/>
<rect x="462.5" y="170.0" width="10.6" height="4.0" fill="#0e7a5b"/>
<rect x="477.6" y="154.0" width="10.6" height="20.0" fill="#0e7a5b"/>
<rect x="492.7" y="58.0" width="10.6" height="116.0" fill="#0e7a5b"/>
<rect x="522.9" y="166.0" width="10.6" height="8.0" fill="#0e7a5b" opacity="0.55"/>
<rect x="538.0" y="58.0" width="10.6" height="116.0" fill="#0e7a5b"/>
<rect x="553.1" y="106.0" width="10.6" height="68.0" fill="#0e7a5b"/>
<rect x="568.1" y="86.0" width="10.6" height="88.0" fill="#0e7a5b"/>
<rect x="583.2" y="150.0" width="10.6" height="24.0" fill="#0e7a5b"/>
<rect x="598.3" y="42.0" width="10.6" height="132.0" fill="#0e7a5b"/>
<rect x="613.4" y="86.0" width="10.6" height="88.0" fill="#0e7a5b"/>
<rect x="628.5" y="98.0" width="10.6" height="76.0" fill="#0e7a5b"/>
<rect x="643.6" y="54.0" width="10.6" height="120.0" fill="#0e7a5b"/>
<rect x="653.4" y="138.0" width="10.6" height="36.0" fill="#0e7a5b"/>
<line x1="30" y1="93.4" x2="664" y2="93.4" stroke="#4c4f43" stroke-width="1" stroke-dasharray="4 3" opacity="0.6"/>
<text x="672" y="97.4" fill="#4c4f43" font-size="12" font-weight="600">7일 평균 20</text>
<text x="30.0" y="192" fill="#847f6d" font-size="10" text-anchor="start">07.30</text>
<text x="347.0" y="192" fill="#847f6d" font-size="10" text-anchor="middle">08.20</text>
<text x="664.0" y="192" fill="#847f6d" font-size="10" text-anchor="end">09.10</text>
</g>
</svg>
