<svg xmlns="http://www.w3.org/2000/svg" width="760" height="200" viewBox="0 0 760 200" role="img" aria-label="일별 앱 실행 추정 — 최근 7일 평균 하루 3회">
<g font-family="-apple-system, BlinkMacSystemFont, 'Segoe UI', 'Malgun Gothic', 'Apple SD Gothic Neo', sans-serif" font-size="11">
<line x1="30" y1="174.0" x2="664" y2="174.0" stroke="#e6e0d0" stroke-width="1"/>
<text x="22" y="177.5" fill="#847f6d" font-size="10" text-anchor="end">0</text>
<line x1="30" y1="134.0" x2="664" y2="134.0" stroke="#e6e0d0" stroke-width="1"/>
<text x="22" y="137.5" fill="#847f6d" font-size="10" text-anchor="end">10</text>
<line x1="30" y1="94.0" x2="664" y2="94.0" stroke="#e6e0d0" stroke-width="1"/>
<text x="22" y="97.5" fill="#847f6d" font-size="10" text-anchor="end">20</text>
<line x1="30" y1="54.0" x2="664" y2="54.0" stroke="#e6e0d0" stroke-width="1"/>
<text x="22" y="57.5" fill="#847f6d" font-size="10" text-anchor="end">30</text>
<line x1="30" y1="14.0" x2="664" y2="14.0" stroke="#e6e0d0" stroke-width="1"/>
<text x="22" y="17.5" fill="#847f6d" font-size="10" text-anchor="end">40</text>
<rect x="30.0" y="150.0" width="6.3" height="24.0" fill="#0e7a5b"/>
<rect x="35.9" y="170.0" width="6.3" height="4.0" fill="#0e7a5b"/>
<rect x="44.9" y="126.0" width="6.3" height="48.0" fill="#0e7a5b"/>
<rect x="54.0" y="174.0" width="6.3" height="0.8" fill="#0e7a5b"/>
<rect x="63.1" y="174.0" width="6.3" height="0.8" fill="#0e7a5b"/>
<rect x="72.1" y="166.0" width="6.3" height="8.0" fill="#0e7a5b"/>
<rect x="81.2" y="66.0" width="6.3" height="108.0" fill="#0e7a5b"/>
<rect x="99.3" y="154.0" width="6.3" height="20.0" fill="#0e7a5b" opacity="0.55"/>
<rect x="108.3" y="118.0" width="6.3" height="56.0" fill="#0e7a5b"/>
<rect x="117.4" y="162.0" width="6.3" height="12.0" fill="#0e7a5b"/>
<rect x="126.5" y="150.0" width="6.3" height="24.0" fill="#0e7a5b"/>
<rect x="135.5" y="170.0" width="6.3" height="4.0" fill="#0e7a5b"/>
<rect x="144.6" y="174.0" width="6.3" height="0.8" fill="#0e7a5b"/>
<rect x="153.6" y="90.0" width="6.3" height="84.0" fill="#0e7a5b"/>
<rect x="162.7" y="74.0" width="6.3" height="100.0" fill="#0e7a5b"/>
<rect x="171.7" y="174.0" width="6.3" height="0.8" fill="#0e7a5b"/>
<rect x="180.8" y="166.0" width="6.3" height="8.0" fill="#0e7a5b"/>
<rect x="189.9" y="174.0" width="6.3" height="0.8" fill="#0e7a5b"/>
<rect x="198.9" y="170.0" width="6.3" height="4.0" fill="#0e7a5b"/>
<rect x="208.0" y="78.0" width="6.3" height="96.0" fill="#0e7a5b"/>
<rect x="217.0" y="158.0" width="6.3" height="16.0" fill="#0e7a5b"/>
<rect x="226.1" y="166.0" width="6.3" height="8.0" fill="#0e7a5b"/>
<rect x="235.1" y="174.0" width="6.3" height="0.8" fill="#0e7a5b"/>
<rect x="244.2" y="118.0" width="6.3" height="56.0" fill="#0e7a5b"/>
<rect x="253.3" y="174.0" width="6.3" height="0.8" fill="#0e7a5b"/>
<rect x="262.3" y="170.0" width="6.3" height="4.0" fill="#0e7a5b"/>
<rect x="280.4" y="172.0" width="6.3" height="2.0" fill="#0e7a5b" opacity="0.55"/>
<rect x="289.5" y="170.0" width="6.3" height="4.0" fill="#0e7a5b"/>
<rect x="298.5" y="154.0" width="6.3" height="20.0" fill="#0e7a5b"/>
<rect x="307.6" y="58.0" width="6.3" height="116.0" fill="#0e7a5b"/>
<rect x="325.7" y="166.0" width="6.3" height="8.0" fill="#0e7a5b" opacity="0.55"/>
<rect x="334.8" y="58.0" width="6.3" height="116.0" fill="#0e7a5b"/>
<rect x="343.8" y="106.0" width="6.3" height="68.0" fill="#0e7a5b"/>
<rect x="352.9" y="86.0" width="6.3" height="88.0" fill="#0e7a5b"/>
<rect x="361.9" y="150.0" width="6.3" height="24.0" fill="#0e7a5b"/>
<rect x="371.0" y="42.0" width="6.3" height="132.0" fill="#0e7a5b"/>
<rect x="380.1" y="86.0" width="6.3" height="88.0" fill="#0e7a5b"/>
<rect x="389.1" y="98.0" width="6.3" height="76.0" fill="#0e7a5b"/>
<rect x="398.2" y="54.0" width="6.3" height="120.0" fill="#0e7a5b"/>
<rect x="407.2" y="138.0" width="6.3" height="36.0" fill="#0e7a5b"/>
<rect x="416.3" y="162.0" width="6.3" height="12.0" fill="#0e7a5b"/>
<rect x="425.3" y="134.0" width="6.3" height="40.0" fill="#0e7a5b"/>
<rect x="434.4" y="158.0" width="6.3" height="16.0" fill="#0e7a5b"/>
<rect x="443.5" y="98.0" width="6.3" height="76.0" fill="#0e7a5b"/>
<rect x="452.5" y="138.0" width="6.3" height="36.0" fill="#0e7a5b"/>
<rect x="461.6" y="74.0" width="6.3" height="100.0" fill="#0e7a5b"/>
<rect x="470.6" y="170.0" width="6.3" height="4.0" fill="#0e7a5b"/>
<rect x="479.7" y="170.0" width="6.3" height="4.0" fill="#0e7a5b"/>
<rect x="488.7" y="170.0" width="6.3" height="4.0" fill="#0e7a5b"/>
<rect x="497.8" y="174.0" width="6.3" height="0.8" fill="#0e7a5b"/>
<rect x="515.9" y="170.0" width="6.3" height="4.0" fill="#0e7a5b" opacity="0.55"/>
<rect x="525.0" y="34.0" width="6.3" height="140.0" fill="#0e7a5b"/>
<rect x="534.0" y="174.0" width="6.3" height="0.8" fill="#0e7a5b"/>
<rect x="543.1" y="174.0" width="6.3" height="0.8" fill="#0e7a5b"/>
<rect x="552.1" y="174.0" width="6.3" height="0.8" fill="#0e7a5b"/>
<rect x="561.2" y="162.0" width="6.3" height="12.0" fill="#0e7a5b"/>
<rect x="579.3" y="112.0" width="6.3" height="62.0" fill="#0e7a5b" opacity="0.55"/>
<rect x="588.4" y="58.0" width="6.3" height="116.0" fill="#0e7a5b"/>
<rect x="597.4" y="166.0" width="6.3" height="8.0" fill="#0e7a5b"/>
<rect x="606.5" y="126.0" width="6.3" height="48.0" fill="#0e7a5b"/>
<rect x="615.5" y="170.0" width="6.3" height="4.0" fill="#0e7a5b"/>
<rect x="624.6" y="162.0" width="6.3" height="12.0" fill="#0e7a5b"/>
<rect x="642.7" y="170.0" width="6.3" height="4.0" fill="#0e7a5b" opacity="0.55"/>
<rect x="651.8" y="170.0" width="6.3" height="4.0" fill="#0e7a5b"/>
<rect x="657.7" y="174.0" width="6.3" height="0.8" fill="#0e7a5b"/>
<line x1="30" y1="162.6" x2="664" y2="162.6" stroke="#4c4f43" stroke-width="1" stroke-dasharray="4 3" opacity="0.6"/>
<text x="672" y="166.6" fill="#4c4f43" font-size="12" font-weight="600">7일 평균 3</text>
<text x="30.0" y="192" fill="#847f6d" font-size="10" text-anchor="start">07.30</text>
<text x="347.0" y="192" fill="#847f6d" font-size="10" text-anchor="middle">09.03</text>
<text x="664.0" y="192" fill="#847f6d" font-size="10" text-anchor="end">10.08</text>
</g>
</svg>
